<mxfile host="app.diagrams.net" modified="2024-07-16T12:44:52.028Z" agent="Mozilla/5.0 (Windows NT 10.0; Win64; x64) AppleWebKit/537.36 (KHTML, like Gecko) Chrome/126.0.0.0 Safari/537.36" etag="A3OWxwvm8vhMoQa5e1z5" version="24.4.8" type="device">
  <diagram name="Страница — 1" id="AjPottjyFNBOZmbiGOLR">
    <mxGraphModel dx="1061" dy="659" grid="1" gridSize="10" guides="1" tooltips="1" connect="1" arrows="1" fold="1" page="1" pageScale="1" pageWidth="827" pageHeight="1169" math="0" shadow="0">
      <root>
        <mxCell id="0" />
        <mxCell id="1" parent="0" />
        <mxCell id="MDLFPnxvz1lzFkoCy7NF-1" value="&lt;div&gt;Frontend&lt;/div&gt;&lt;div&gt;&lt;span style=&quot;background-color: initial;&quot;&gt;Форма создания набора&lt;/span&gt;&lt;br&gt;&lt;/div&gt;" style="whiteSpace=wrap;html=1;aspect=fixed;" vertex="1" parent="1">
          <mxGeometry x="80" y="200" width="80" height="80" as="geometry" />
        </mxCell>
        <mxCell id="MDLFPnxvz1lzFkoCy7NF-4" value="API&lt;div&gt;Backend&lt;br&gt;&lt;div&gt;Яндекс. Прилавок&lt;/div&gt;&lt;/div&gt;" style="whiteSpace=wrap;html=1;aspect=fixed;" vertex="1" parent="1">
          <mxGeometry x="360" y="200" width="80" height="80" as="geometry" />
        </mxCell>
        <mxCell id="MDLFPnxvz1lzFkoCy7NF-5" value="HTTPS" style="text;html=1;align=center;verticalAlign=middle;resizable=0;points=[];autosize=1;strokeColor=none;fillColor=none;" vertex="1" parent="1">
          <mxGeometry x="230" y="208" width="60" height="30" as="geometry" />
        </mxCell>
        <mxCell id="MDLFPnxvz1lzFkoCy7NF-7" value="TCP" style="text;html=1;align=center;verticalAlign=middle;resizable=0;points=[];autosize=1;strokeColor=none;fillColor=none;" vertex="1" parent="1">
          <mxGeometry x="520" y="208" width="50" height="30" as="geometry" />
        </mxCell>
        <mxCell id="MDLFPnxvz1lzFkoCy7NF-8" value="Database&lt;div&gt;Яндекс.&lt;/div&gt;&lt;div&gt;Прилавок&lt;/div&gt;" style="whiteSpace=wrap;html=1;aspect=fixed;" vertex="1" parent="1">
          <mxGeometry x="640" y="200" width="80" height="80" as="geometry" />
        </mxCell>
        <mxCell id="MDLFPnxvz1lzFkoCy7NF-9" value="" style="endArrow=classic;html=1;rounded=0;exitX=1;exitY=0.5;exitDx=0;exitDy=0;entryX=0;entryY=0.5;entryDx=0;entryDy=0;" edge="1" parent="1" source="MDLFPnxvz1lzFkoCy7NF-1" target="MDLFPnxvz1lzFkoCy7NF-4">
          <mxGeometry width="50" height="50" relative="1" as="geometry">
            <mxPoint x="390" y="380" as="sourcePoint" />
            <mxPoint x="440" y="330" as="targetPoint" />
          </mxGeometry>
        </mxCell>
        <mxCell id="MDLFPnxvz1lzFkoCy7NF-10" value="Запрос на&amp;nbsp;&lt;div&gt;создание набора&lt;/div&gt;" style="text;html=1;align=center;verticalAlign=middle;resizable=0;points=[];autosize=1;strokeColor=none;fillColor=none;" vertex="1" parent="1">
          <mxGeometry x="200" y="240" width="120" height="40" as="geometry" />
        </mxCell>
        <mxCell id="MDLFPnxvz1lzFkoCy7NF-11" value="" style="endArrow=classic;html=1;rounded=0;exitX=1;exitY=0.5;exitDx=0;exitDy=0;entryX=0;entryY=0.5;entryDx=0;entryDy=0;" edge="1" parent="1" source="MDLFPnxvz1lzFkoCy7NF-4" target="MDLFPnxvz1lzFkoCy7NF-8">
          <mxGeometry width="50" height="50" relative="1" as="geometry">
            <mxPoint x="390" y="380" as="sourcePoint" />
            <mxPoint x="440" y="330" as="targetPoint" />
          </mxGeometry>
        </mxCell>
        <mxCell id="MDLFPnxvz1lzFkoCy7NF-12" value="Запрос на сохранение&amp;nbsp;&lt;div&gt;данных нового набора&lt;/div&gt;" style="text;html=1;align=center;verticalAlign=middle;resizable=0;points=[];autosize=1;strokeColor=none;fillColor=none;" vertex="1" parent="1">
          <mxGeometry x="470" y="240" width="150" height="40" as="geometry" />
        </mxCell>
        <mxCell id="MDLFPnxvz1lzFkoCy7NF-16" value="&lt;span style=&quot;background-color: initial;&quot;&gt;Сохраняет данные в соответствующих таблицах&amp;nbsp;&lt;/span&gt;&lt;div&gt;&lt;span style=&quot;background-color: initial;&quot;&gt;и в&lt;/span&gt;&lt;span style=&quot;background-color: initial;&quot;&gt;озвращает результат операции API-серверу.&lt;/span&gt;&lt;/div&gt;" style="text;html=1;align=center;verticalAlign=middle;resizable=0;points=[];autosize=1;strokeColor=none;fillColor=none;" vertex="1" parent="1">
          <mxGeometry x="410" y="320" width="300" height="40" as="geometry" />
        </mxCell>
        <mxCell id="MDLFPnxvz1lzFkoCy7NF-17" value="" style="endArrow=classic;html=1;rounded=0;exitX=0.5;exitY=1;exitDx=0;exitDy=0;entryX=0.879;entryY=1.001;entryDx=0;entryDy=0;entryPerimeter=0;" edge="1" parent="1" source="MDLFPnxvz1lzFkoCy7NF-8" target="MDLFPnxvz1lzFkoCy7NF-4">
          <mxGeometry width="50" height="50" relative="1" as="geometry">
            <mxPoint x="400" y="350" as="sourcePoint" />
            <mxPoint x="450" y="300" as="targetPoint" />
            <Array as="points">
              <mxPoint x="680" y="320" />
              <mxPoint x="430" y="320" />
            </Array>
          </mxGeometry>
        </mxCell>
        <mxCell id="MDLFPnxvz1lzFkoCy7NF-18" value="" style="endArrow=classic;html=1;rounded=0;exitX=0.5;exitY=1;exitDx=0;exitDy=0;entryX=0.133;entryY=0.994;entryDx=0;entryDy=0;entryPerimeter=0;" edge="1" parent="1" source="MDLFPnxvz1lzFkoCy7NF-1" target="MDLFPnxvz1lzFkoCy7NF-4">
          <mxGeometry width="50" height="50" relative="1" as="geometry">
            <mxPoint x="400" y="350" as="sourcePoint" />
            <mxPoint x="450" y="300" as="targetPoint" />
            <Array as="points">
              <mxPoint x="120" y="320" />
              <mxPoint x="370" y="320" />
            </Array>
          </mxGeometry>
        </mxCell>
        <mxCell id="MDLFPnxvz1lzFkoCy7NF-21" value="После получения результата от базы данных,&amp;nbsp;&lt;div&gt;сервер возвращает соответствующий HTTP ответ фронтенду.&lt;/div&gt;" style="text;html=1;align=center;verticalAlign=middle;resizable=0;points=[];autosize=1;strokeColor=none;fillColor=none;" vertex="1" parent="1">
          <mxGeometry x="43" y="320" width="370" height="40" as="geometry" />
        </mxCell>
      </root>
    </mxGraphModel>
  </diagram>
</mxfile>
